HIERARCHY
ROOT Hips
{
	OFFSET 0.000000 0.000000 0.000000
	CHANNELS 6 Xposition Yposition Zposition Zrotation Yrotation Xrotation 
	JOINT LHipJoint
	{
		OFFSET 0.000000 0.000000 0.000000
		CHANNELS 3 Zrotation Yrotation Xrotation
		JOINT LeftUpLeg
		{
			OFFSET 1.363060 -1.794630 0.839290
			CHANNELS 3 Zrotation Yrotation Xrotation
			JOINT LeftLeg
			{
				OFFSET 2.448110 -6.726130 0.000000
				CHANNELS 3 Zrotation Yrotation Xrotation
				JOINT LeftFoot
				{
					OFFSET 2.562200 -7.039590 0.000000
					CHANNELS 3 Zrotation Yrotation Xrotation
					JOINT LeftToeBase
					{
						OFFSET 0.157640 -0.433110 2.322550
						CHANNELS 3 Zrotation Yrotation Xrotation
						End Site
						{
							OFFSET 0.000000 0.000000 0.000000
						}
					}
				}
			}
		}
	}
	JOINT RHipJoint
	{
		OFFSET 0.000000 0.000000 0.000000
		CHANNELS 3 Zrotation Yrotation Xrotation
		JOINT RightUpLeg
		{
			OFFSET -1.305520 -1.794630 0.839290
			CHANNELS 3 Zrotation Yrotation Xrotation
			JOINT RightLeg
			{
				OFFSET -2.542530 -6.985550 0.000000
				CHANNELS 3 Zrotation Yrotation Xrotation
				JOINT RightFoot
				{
					OFFSET -2.568260 -7.056230 0.000000
					CHANNELS 3 Zrotation Yrotation Xrotation
					JOINT RightToeBase
					{
						OFFSET -0.164730 -0.452590 2.363150
						CHANNELS 3 Zrotation Yrotation Xrotation
						End Site
						{
							OFFSET 0.000000 0.000000 0.000000
						}
					}
				}
			}
		}
	}
	JOINT LowerBack
	{
		OFFSET 0.000000 0.000000 0.000000
		CHANNELS 3 Zrotation Yrotation Xrotation
		JOINT Spine
		{
			OFFSET 0.028270 2.035590 -0.193380
			CHANNELS 3 Zrotation Yrotation Xrotation
			JOINT Spine1
			{
				OFFSET 0.056720 2.048850 -0.042750
				CHANNELS 3 Zrotation Yrotation Xrotation
				JOINT Neck
				{
					OFFSET 0.000000 0.000000 0.000000
					CHANNELS 3 Zrotation Yrotation Xrotation
					JOINT Neck1
					{
						OFFSET -0.054170 1.746240 0.172020
						CHANNELS 3 Zrotation Yrotation Xrotation
						JOINT Head
						{
							OFFSET 0.104070 1.761360 -0.123970
							CHANNELS 3 Zrotation Yrotation Xrotation
							End Site
							{
								OFFSET 0.000000 0.000000 0.000000
							}
						}
					}
				}
				JOINT LeftShoulder
				{
					OFFSET 0.000000 0.000000 0.000000
					CHANNELS 3 Zrotation Yrotation Xrotation
					JOINT LeftArm
					{
						OFFSET 3.362410 1.200890 -0.311210
						CHANNELS 3 Zrotation Yrotation Xrotation
						JOINT LeftForeArm
						{
							OFFSET 4.983000 -0.000000 -0.000000
							CHANNELS 3 Zrotation Yrotation Xrotation
							JOINT LeftHand
							{
								OFFSET 3.483560 -0.000000 -0.000000
								CHANNELS 3 Zrotation Yrotation Xrotation
								JOINT LeftFingerBase
								{
									OFFSET 0.000000 0.000000 0.000000
									CHANNELS 3 Zrotation Yrotation Xrotation
									JOINT LeftHandIndex1
									{
										OFFSET 0.715260 -0.000000 -0.000000
										CHANNELS 3 Zrotation Yrotation Xrotation
										End Site
										{
											OFFSET 0.000000 0.000000 0.000000
										}
									}
								}
								JOINT LThumb
								{
									OFFSET 0.000000 0.000000 0.000000
									CHANNELS 3 Zrotation Yrotation Xrotation
									End Site
									{
										OFFSET 0.000000 0.000000 0.000000
									}
								}
							}
						}
					}
				}
				JOINT RightShoulder
				{
					OFFSET 0.000000 0.000000 0.000000
					CHANNELS 3 Zrotation Yrotation Xrotation
					JOINT RightArm
					{
						OFFSET -3.136600 1.374050 -0.404650
						CHANNELS 3 Zrotation Yrotation Xrotation
						JOINT RightForeArm
						{
							OFFSET -5.241900 -0.000000 -0.000000
							CHANNELS 3 Zrotation Yrotation Xrotation
							JOINT RightHand
							{
								OFFSET -3.444170 -0.000000 -0.000000
								CHANNELS 3 Zrotation Yrotation Xrotation
								JOINT RightFingerBase
								{
									OFFSET 0.000000 0.000000 0.000000
									CHANNELS 3 Zrotation Yrotation Xrotation
									JOINT RightHandIndex1
									{
										OFFSET -0.622530 -0.000000 -0.000000
										CHANNELS 3 Zrotation Yrotation Xrotation
										End Site
										{
											OFFSET 0.000000 0.000000 0.000000
										}
									}
								}
								JOINT RThumb
								{
									OFFSET 0.000000 0.000000 0.000000
									CHANNELS 3 Zrotation Yrotation Xrotation
									End Site
									{
										OFFSET 0.000000 0.000000 0.000000
									}
								}
							}
						}
					}
				}
			}
		}
	}
}
MOTION
Frames: 4
Frame Time: 0.008333
4.800421 16.227720 -2.577188 169.944219 73.580330 -176.990410 -8.968004 2.302357 2.447670 -25.948545 -6.092668 -12.871549 -3.159799 0.757138 32.654719 1.374298 -0.488275 -25.775250 -0.928400 0.000000 -3.204000 11.500653 -0.739622 0.673443 -7.975237 -2.587249 -32.677207 -1.291848 -4.610118 68.876323 -1.951945 -9.500574 -12.489035 0.626300 0.000000 -35.364900 -1.742485 -0.465550 -3.711227 -1.055948 -0.424651 -3.763975 -7.448066 -0.267838 -1.972773 9.061201 -10.759094 -6.448923 -3.973352 -0.315489 0.302188 0.000000 0.000000 0.000000 -0.211211 7.390274 -1.228921 -74.949117 -13.789311 28.716196 -178.952029 -71.738564 179.855902 19.982830 -20.484773 -3.985892 -0.652788 1.241876 -0.000000 0.000000 0.000000 0.000000 0.000000 0.000000 0.000000 9.583477 -5.059715 -1.290832 78.512315 -4.905532 25.145838 -179.333784 75.632702 179.848592 -16.514953 34.618603 -5.428147 0.182741 -1.145463 0.000000 0.000000 0.000000 0.000000 0.000000 0.000000 0.000000 
4.992966 16.292558 -2.634406 170.282222 72.536099 -176.684099 -8.990525 2.422791 2.359608 -25.622378 -5.881840 -11.164931 -3.189977 0.720504 31.138652 1.128068 -1.231190 -24.057709 -0.607501 -0.000000 -4.941000 11.422306 -0.507049 0.800498 -8.032036 -1.870929 -33.223955 -1.214804 -4.476427 67.521561 -2.008127 -9.683034 -12.597902 0.643300 -0.000000 -35.150700 -1.736183 -0.966068 -3.634112 -0.973618 -0.913829 -3.736470 -7.316153 -0.773874 -2.010907 9.001859 -11.376926 -6.331547 -3.879183 -0.309447 0.343057 0.000000 0.000000 0.000000 0.209204 5.903936 -1.203942 -75.202959 -15.424480 29.348874 -178.898925 -71.513857 179.854504 19.465834 -20.675130 -3.925763 -0.648662 1.282661 -0.000000 0.000000 0.000000 0.000000 0.000000 0.000000 0.000000 9.023436 -6.142341 -1.157708 77.915039 -6.173757 25.312592 -179.317466 75.082402 179.844644 -16.754097 34.467656 -5.481044 0.181707 -1.139350 0.000000 0.000000 0.000000 0.000000 0.000000 0.000000 0.000000 
5.188283 16.368566 -2.696062 170.738596 71.536144 -176.282501 -9.028939 2.550516 2.268342 -25.212799 -5.634006 -9.422813 -3.196324 0.686687 29.478128 0.892375 -1.816148 -22.055949 -0.356700 0.000000 -7.003900 11.322761 -0.280301 0.924954 -7.996052 -1.143758 -33.637116 -1.125046 -4.313623 65.832161 -2.080903 -9.948979 -12.569464 0.639700 0.000000 -34.975200 -1.676488 -1.486053 -3.552478 -0.878100 -1.427316 -3.709747 -7.165535 -1.304731 -2.037041 8.941620 -11.997866 -6.248778 -3.771980 -0.302210 0.374596 0.000000 0.000000 0.000000 0.697763 4.536251 -1.191638 -75.448456 -16.898370 29.906214 -178.848184 -71.196729 179.854187 18.894842 -20.850765 -3.849130 -0.641686 1.321665 -0.000000 0.000000 0.000000 0.000000 0.000000 0.000000 0.000000 8.404462 -7.202530 -1.031204 77.265301 -7.351363 25.570985 -179.306586 74.494530 179.841742 -16.887650 34.325734 -5.500242 0.180018 -1.134584 0.000000 0.000000 0.000000 0.000000 0.000000 0.000000 0.000000 
5.386635 16.454617 -2.762817 171.321749 70.598614 -175.768858 -9.087394 2.685034 2.179372 -24.712723 -5.359915 -7.673463 -3.175216 0.658146 27.692837 0.670956 -2.240946 -19.759452 -0.175200 0.000000 -9.501000 11.200133 -0.064719 1.051277 -7.856202 -0.396679 -33.931049 -1.025911 -4.122426 63.805487 -2.166422 -10.275793 -12.382504 0.607000 -0.000000 -34.848400 -1.550879 -2.015733 -3.480760 -0.768053 -1.956954 -3.686099 -6.997491 -1.852317 -2.046317 8.876456 -12.621380 -6.202780 -3.654298 -0.293948 0.396127 0.000000 0.000000 0.000000 1.226334 3.311244 -1.193532 -75.683854 -18.215962 30.401752 -178.800234 -70.805516 179.854729 18.314991 -21.005722 -3.764275 -0.633391 1.358266 -0.000000 0.000000 0.000000 0.000000 0.000000 0.000000 0.000000 7.740538 -8.237613 -0.915834 76.551149 -8.425291 25.903714 -179.302904 73.889992 179.840066 -16.906438 34.187177 -5.482241 0.177608 -1.130601 0.000000 0.000000 0.000000 0.000000 0.000000 0.000000 0.000000 
